<svg id="Layer_1" data-name="Layer 1" xmlns="http://www.w3.org/2000/svg" viewBox="0 0 931.89 875.49"><defs><style>.cls-1{fill:#f6ad55;}.cls-2{fill:#a2ecf4;}.cls-3{fill:#90cdf4;}.cls-4{fill:#bee3f8;}.cls-5{fill:#8ac426;}.cls-6{fill:#83bc33;}.cls-7{fill:#639318;}.cls-8{fill:#f7c526;}.cls-9{fill:#fff;}.cls-10{fill:none;}.cls-11{fill:#fdffff;}.cls-12{fill:#fbd38d;}.cls-13{fill:#38b2ac;}.cls-14{fill:#4fd1c5;}.cls-15{fill:#4b4c4c;}</style></defs><g id="OBJECT"><path class="cls-1" d="M850.93,1127.05l-306.6-843a16.23,16.23,0,1,1,30.5-11.1l306.6,843a16.23,16.23,0,1,1-30.5,11.1Z" transform="translate(-242.05 -262.25)"/><circle class="cls-2" cx="469.18" cy="432.99" r="359.2"/><path class="cls-3" d="M428.63,473.55a357,357,0,0,1,189.7-125.3c191.6-51.3,388.6,62.4,439.9,254s-62.4,388.6-254,439.9a356,356,0,0,1-136.7,9.7c-141-17.3-264.1-117.9-303.2-263.6C333.93,674.75,361.33,559.45,428.63,473.55Z" transform="translate(-242.05 -262.25)"/><path class="cls-4" d="M428.53,473.55c7.9-2.8,15.9-5.3,24.1-7.5,167.1-44.7,338.9,54.4,383.7,221.5,39.8,148.7-34.3,301-168.8,364.3-141-17.3-264.1-117.9-303.2-263.6C333.93,674.75,361.33,559.45,428.53,473.55Z" transform="translate(-242.05 -262.25)"/><path class="cls-5" d="M991.43,470.25a360.28,360.28,0,0,0-137.7-104.6,27.81,27.81,0,0,0-3.9,6.1,1.72,1.72,0,0,1-1.2,1l-4.9,1.3a7.27,7.27,0,0,0-5.4,7.7l1.1,11.8a2.2,2.2,0,0,1-.1.8c-.8,2.4-5.4,14.8-12.2.2a1.88,1.88,0,0,1-.2-.8l-.1-7a5.75,5.75,0,0,0-4.5-5.5c-4.3-1-10.1-4.3-9.1-14.3a6.89,6.89,0,0,1,.3-.8l3.1-5.4q.9-1.8,0-2.7l-3.3-3.7a2,2,0,0,1-.4-.8l-.8-3c-7.1-2.1-14.4-3.9-21.7-5.6l-7.7,10.4a1.79,1.79,0,0,0-.4,1.4c.5,4.2,2.3,24.9-12.4,11.9l-2.1-1.8a5,5,0,0,0-8.2,2.5l-3.1,11.9a13.41,13.41,0,0,0-.1,6.6c.8,3.7.9,10.1-6.8,14a11.47,11.47,0,0,0-6,7.6l-1.4,6.9a3.75,3.75,0,0,0-.1.8l.2,11.2a1.9,1.9,0,0,0,1,1.6l2.8,1.6-6.8,7.7a1.66,1.66,0,0,0-.5,1.2c-.1,3,.6,13.8,16.8,4.2a.52.52,0,0,1,.4-.2c.8-.2,3.1-.9,5.1-1.4a1.91,1.91,0,0,0,.8-3.3l-13.7-12s-2.9-10.8,10.7-1.5a4.75,4.75,0,0,0,4,.7l16.7-4.5a1.9,1.9,0,0,1,2.2,2.8l-1.5,2.7a2,2,0,0,0-.2,1.5l3.4,12.7a2,2,0,0,1-.6,1.9l-6.6,5.8a1.94,1.94,0,0,0,.8,3.3l12.8,3.7a2.51,2.51,0,0,0,1.5-.2l9.7-5.4a3,3,0,0,1,1-.2c2.4.1,11.2,1.3,12.1,11a2,2,0,0,0,1.2,1.7l12.7,5.1c.2.1.3.2.5.3,1.6,1.3,11.5,9.7,14.6,20.1a1.55,1.55,0,0,0,.8,1.1c3.5,2,20,11.5,24.3,14a2.14,2.14,0,0,1,.9,1.8l-1.1,17.7v.4c.3,2.1,3.5,22.7,6.6,1.3v-.3c0-1.3.1-12.4,4.7-16.7.1-.1.3-.2.4-.3,2-1.1,17.5-10.1,22.6-6.7a1.87,1.87,0,0,0,1.4.5c3.3-.3,15.2-1.5,17.2-1.7.2-.1.4,0,.6,0,2.4.6,19.1,5.1,17.7,19.7a1.41,1.41,0,0,0,.1.9c1.1,2.4,5.9,14.4.3,24.4-.1.1-.1.2-.2.3-1.1,1.5-11.9,15-20.4,5.4,0,0-24.5-21.4-11.1,5.8a2.18,2.18,0,0,0,.4.5c1.6,1.7,11.4,12.4-2.1,16,0,0-12.2.2-8.7,14.4a2,2,0,0,0,.4.8c1.4,1.8,8.1,10.3,3.6,14.3,0,0-4,6.8-10.8,3.6a1.91,1.91,0,0,0-1.8,0l-9.1,5a2.12,2.12,0,0,1-1.9,0l-6.4-3.7a.35.35,0,0,0-.2-.1c-1.6-.6-17.9-6.8-28.8,7.5a1.56,1.56,0,0,1-.8.6c-1.5.6-6.7,2.7-11.6,4.7a28.74,28.74,0,0,0-15.3,14.6l-4.7,10.1a1.92,1.92,0,0,1-1.5,1.1c-4.3.5-21,4.1-21.3,26.2a18.68,18.68,0,0,1-8.5,15.1,18.56,18.56,0,0,0-6.7,7.2,13.27,13.27,0,0,1-8.6,7.6l-1.3.3a16.69,16.69,0,0,0-9.4,6.3l-4.4,6a18.28,18.28,0,0,1-6.9,5.4c-3.1,1.5-5.1,6.9,10.2,25.6l.3.3,11.2,8.8a1.69,1.69,0,0,1,.7,1c1,3.5,6.5,22,15.1,34.5a12.42,12.42,0,0,0,11.3,5.4c4.8-.4,11.7-.3,18.1,2.5a11.68,11.68,0,0,1,6.6,7.9l1.6,6a12.93,12.93,0,0,0,4.2,6.5l28.4,23a2.1,2.1,0,0,0,1.1.4,14.84,14.84,0,0,0,9-3.1,2,2,0,0,1,3,2l-1.5,7.2v.5c.1,1.7,1.7,10,16.1,7.7a6.38,6.38,0,0,1,6.3,2.9,10.91,10.91,0,0,0,7.5,5.1,7.42,7.42,0,0,1,5.8,5.5c1.1,4.1,4.4,9.5,13.9,12.2,0,0,11.1,6.5-.6,9.6,0,0-4,6.9,4.3,7.9a1.72,1.72,0,0,1,1.4.8l4.2,6.4a1.69,1.69,0,0,0,1.4.9c2.7.2,10.2,1.6,5.4,10.4a2.92,2.92,0,0,0-.2.9c.1,2.2-.1,11.7-6.6,16.2a1.9,1.9,0,0,0,.8,3.4c5.7.9,15.7,0,26.5-13.1,0,0,10.1-9-1.4-40.3-.1-.1-.1-.1-.1-.2L922.83,835l-15.1-33.4v-.1l-18.6-48.3a11.72,11.72,0,0,1,1.2-10.6l11.1-16.6a28.4,28.4,0,0,0,4.3-11.2c1.3-8.8,4-25,7-33.1a13.1,13.1,0,0,0-.3-10.1l-5-11s-6.1-13.3-15.2-20.7a11.81,11.81,0,0,1-4.1-8l-1.2-12.5a1.45,1.45,0,0,0-.2-.7c-.8-1.6-4.2-9.3,7.9-2.6a2,2,0,0,0,2-.1c2.8-2,10.7-8.5,14.7-22.1a1.27,1.27,0,0,0,.1-.6c-.1-2,0-15.1,11.5-15.3,0,0,2.8,1.7,10.7-10.4a9.2,9.2,0,0,1,8.1-4.3c3.5.3,8.9-1.3,15.2-9.9l.2-.2c.8-.8,7.7-7.6,12.5-12.4a11.4,11.4,0,0,0,3-11.1l-1.3-4.7a2,2,0,0,1,0-1.1l15.8-46.6A18.21,18.21,0,0,1,991.43,470.25Z" transform="translate(-242.05 -262.25)"/><path class="cls-5" d="M352.83,667.85l10-5.8c27.1-37.3,17.5-13.6,10.6,1.4a22,22,0,0,1-12.9,11.6,20.85,20.85,0,0,0-8.4,4.9q-.3,7-.3,14.1a21.88,21.88,0,0,0,11.7,9l35.4,12c25.4,7.3,23.2-9.7,20.5-18.7a17.65,17.65,0,0,1,.1-10.9l12-35.5c7.4-42.6,8.8-2.3,8.8-2.3l-.7,44c-14.8,38.4-24.3,37.8-24.3,37.8-47.1-3.6-4.2,29.9,8,38.8a15.07,15.07,0,0,0,5.6,2.6c29,6.2,36.5,48.7,38.4,65.8a13.37,13.37,0,0,0,7.4,10.5l16.1,7.9a5.48,5.48,0,0,1,2.5,7.4c-5.6,12.5,17.9,26.1,17.9,26.1,15.8,23.9,38.6,27.2,38.6,27.2,36,6,20.2-18,20.2-18l6.8-33.1-.7-42.5a16.26,16.26,0,0,0-4.7-11.2c-15.5-15.8-9.8-46.5-6.4-59.6a15.8,15.8,0,0,0-1.2-11.1c-14.4-27.6,17.7-33.4,17.7-33.4l33.7-2.8c32.9-5.7,26-66.5,26-66.5,3.8-24.1-24.7-43.6-35.2-50a17.24,17.24,0,0,1-5.9-6.1,81.84,81.84,0,0,0-15.3-19.8,12.21,12.21,0,0,0-15.1-1.2c-7.4,5.2-14,3-14,3l-22-.4c-25.3.4-22.6,9.1-18.2,14.7a6.61,6.61,0,0,1-.9,9.2c-6.2,5.2-16.5,13.7-22.6,18.8a4.33,4.33,0,0,1-6.8-1.6c-5.3-11.9-19,.7-25.2,7.3a14.1,14.1,0,0,1-8.3,4.4l-16.9,2.6a10.72,10.72,0,0,1-9.3-3.1c-19.8-20.6,14.7-27.1,14.7-27.1,22.6-9.2-5.5-20.5-5.5-20.5l-15.2-.3a23.78,23.78,0,0,0-12.4,3.3c-24,14.1-16.4.4-9.7-9.1a11.1,11.1,0,0,0-.2-13.2c-5-6.3.1-6,5.3-4.7a10.52,10.52,0,0,0,10.8-3.6c9.5-12.2,23.3,11.5,23.3,11.5l10.5,16c9.9-6.6,15.5-2.3,18.3,1.9a2,2,0,0,0,3.6-.7l2.9-14.1,17.4-19.8a1.32,1.32,0,0,1,2.2,1.3c-15.9,49.5,6.5,15.2,16.2-.8a8.86,8.86,0,0,1,11.5-3.5c9.7,4.6,26.5,12.5,34.6,16.3a16.87,16.87,0,0,0,10.4,1.2c24.8-5.1,20.6-19,15.2-27.5a11.49,11.49,0,0,0-12.7-4.7c-23,6.3-19.8-3.8-15.8-10.6a24.09,24.09,0,0,0,3.6-13l-.3-17.2,7.4-10.1a6.66,6.66,0,0,0-1.5-9.5l-13.7-9.7c-11.6-34.3-18.3,9.5-20.5,28.8a7.91,7.91,0,0,1-9.1,6.9l-27.8-4.6-33,1.2a11.29,11.29,0,0,1-10.5-6.4l-6-12.7A361,361,0,0,0,352.83,667.85Z" transform="translate(-242.05 -262.25)"/><path class="cls-6" d="M477.83,422.15c-7.7,6.7-15.2,13.7-22.3,20.9l13.5,16.3a3.17,3.17,0,0,0,5.5-1l3-8.9a8.45,8.45,0,0,1,8.5-5.7C513.13,445.35,490.93,430.15,477.83,422.15Z" transform="translate(-242.05 -262.25)"/><path class="cls-7" d="M850.93,434.15c5.5,0,9.9,1.4,9.9,3.1s-4.4,3.1-9.9,3.1-9.9-1.4-9.9-3.1S845.43,434.15,850.93,434.15Z" transform="translate(-242.05 -262.25)"/><path class="cls-8" d="M850.93,393.15a16.35,16.35,0,0,1,16.4,16.4c0,9.1-16.4,28.7-16.4,28.7s-16.4-19.6-16.4-28.7A16.47,16.47,0,0,1,850.93,393.15Z" transform="translate(-242.05 -262.25)"/><path class="cls-9" d="M850.93,401.35a8.2,8.2,0,1,1-8.2,8.2A8.24,8.24,0,0,1,850.93,401.35Z" transform="translate(-242.05 -262.25)"/><path class="cls-7" d="M946.93,502.85c5.5,0,9.9,1.4,9.9,3.1s-4.4,3.1-9.9,3.1-9.9-1.4-9.9-3.1S941.53,503,946.93,502.85Z" transform="translate(-242.05 -262.25)"/><path class="cls-8" d="M946.93,462a16.35,16.35,0,0,1,16.4,16.4c0,9.1-16.4,28.7-16.4,28.7s-16.4-19.6-16.4-28.7A16.41,16.41,0,0,1,946.93,462Z" transform="translate(-242.05 -262.25)"/><path class="cls-9" d="M946.93,470.15a8.2,8.2,0,1,1-8.2,8.2A8.24,8.24,0,0,1,946.93,470.15Z" transform="translate(-242.05 -262.25)"/><ellipse class="cls-7" cx="313.98" cy="382.09" rx="9.9" ry="3.1"/><path class="cls-8" d="M556,600.25a16.35,16.35,0,0,1,16.4,16.4c0,9.1-16.4,28.7-16.4,28.7s-16.4-19.6-16.4-28.7A16.47,16.47,0,0,1,556,600.25Z" transform="translate(-242.05 -262.25)"/><path class="cls-9" d="M556,608.45a8.2,8.2,0,1,1-8.2,8.2A8.24,8.24,0,0,1,556,608.45Z" transform="translate(-242.05 -262.25)"/><path class="cls-7" d="M879.13,815.45c5.5,0,9.9,1.4,9.9,3.1s-4.4,3.1-9.9,3.1-9.9-1.4-9.9-3.1S873.63,815.55,879.13,815.45Z" transform="translate(-242.05 -262.25)"/><path class="cls-8" d="M879.13,774.55a16.35,16.35,0,0,1,16.4,16.4c0,9.1-16.4,28.7-16.4,28.7s-16.4-19.6-16.4-28.7A16.35,16.35,0,0,1,879.13,774.55Z" transform="translate(-242.05 -262.25)"/><path class="cls-9" d="M879.13,782.75a8.2,8.2,0,1,1-8.2,8.2A8.24,8.24,0,0,1,879.13,782.75Z" transform="translate(-242.05 -262.25)"/><path class="cls-7" d="M469.63,511.05c5.5,0,9.9,1.4,9.9,3.1s-4.4,3.1-9.9,3.1-9.9-1.4-9.9-3.1S464.13,511.05,469.63,511.05Z" transform="translate(-242.05 -262.25)"/><path class="cls-8" d="M469.63,470.15a16.35,16.35,0,0,1,16.4,16.4c0,9.1-16.4,28.7-16.4,28.7s-16.4-19.6-16.4-28.7A16.35,16.35,0,0,1,469.63,470.15Z" transform="translate(-242.05 -262.25)"/><circle class="cls-9" cx="227.58" cy="224.29" r="8.2"/><path class="cls-7" d="M445.23,733.45c5.5,0,9.9,1.4,9.9,3.1s-4.4,3.1-9.9,3.1-9.9-1.4-9.9-3.1S439.73,733.45,445.23,733.45Z" transform="translate(-242.05 -262.25)"/><path class="cls-8" d="M445.23,692.55a16.35,16.35,0,0,1,16.4,16.4c0,9.1-16.4,28.7-16.4,28.7s-16.4-19.6-16.4-28.7A16.35,16.35,0,0,1,445.23,692.55Z" transform="translate(-242.05 -262.25)"/><path class="cls-9" d="M445.23,700.75A8.2,8.2,0,1,1,437,709,8.11,8.11,0,0,1,445.23,700.75Z" transform="translate(-242.05 -262.25)"/><path class="cls-7" d="M526.13,820c5.5,0,9.9,1.4,9.9,3.1s-4.4,3.1-9.9,3.1-9.9-1.4-9.9-3.1S520.63,820,526.13,820Z" transform="translate(-242.05 -262.25)"/><path class="cls-8" d="M526.13,779a16.35,16.35,0,0,1,16.4,16.4c0,9.1-16.4,28.7-16.4,28.7s-16.4-19.6-16.4-28.7A16.41,16.41,0,0,1,526.13,779Z" transform="translate(-242.05 -262.25)"/><path class="cls-9" d="M526.13,787.15a8.2,8.2,0,1,1-8.2,8.2A8.24,8.24,0,0,1,526.13,787.15Z" transform="translate(-242.05 -262.25)"/><path class="cls-10" d="M1065.53,755.25c74.1,21.4,102.3,14.2,107.2,5.7,5.3-9.3-4.5-41.9-75.1-105.4q-15.75-14.25-33.8-28.9A359.17,359.17,0,0,1,1065.53,755.25Z" transform="translate(-242.05 -262.25)"/><path class="cls-11" d="M670.94,870.72c-99.5,57.4-197.5,103.2-276.2,128.8q-11.4,3.75-21.6,6.6c-74.1,21.4-102.3,14.2-107.2,5.7-5.3-9.3,4.4-41.9,75.1-105.4,10.5-9.4,21.8-19.1,33.8-28.9,1.6-8.1,3.4-16.2,5.6-24.4,1.1-4.1,2.3-8.1,3.5-12-96.8,74.6-159,145-137.7,182,7.8,13.5,25.1,19.6,49.4,19.6,22.1,0,50.1-5.1,82.1-14.2,84.9-24.1,197.8-76.6,304.6-138.2,4.2-2.4,8.4-4.9,12.6-7.4v-26.4C686.94,861.42,678.94,866.12,670.94,870.72Z" transform="translate(-242.05 -262.25)"/><path class="cls-1" d="M303.43,804.45c49.4,184.2,217,312.9,407.5,312.9a426.59,426.59,0,0,0,209.1-55.2,19.47,19.47,0,0,0,8.6-23.6h0a19.51,19.51,0,0,0-28-10.2,385.3,385.3,0,0,1-189.6,50c-172.9,0-325-116.8-369.8-284-54.7-204,66.8-414.5,270.9-469.2,10-2.7,20.1-4.9,30.2-6.8a19.53,19.53,0,0,0,14.8-25.8h0a19.39,19.39,0,0,0-21.7-12.5c-11.2,2.1-22.4,4.5-33.4,7.5C377.23,347.85,243.33,579.75,303.43,804.45Z" transform="translate(-242.05 -262.25)"/><path class="cls-12" d="M303.53,804.55c49.4,184.2,217,312.9,407.5,312.9a426.59,426.59,0,0,0,209.1-55.2,19.47,19.47,0,0,0,8.6-23.6h0a6.12,6.12,0,0,0-.5-1.2,405.1,405.1,0,0,1-112.1,49c-216.1,57.9-438.2-70.3-496.1-286.4s70.3-438.2,286.4-496.1a400.66,400.66,0,0,1,51-10.3c-.1-.4-.2-.7-.3-1.1a19.39,19.39,0,0,0-21.7-12.5c-11.2,2.1-22.4,4.5-33.4,7.5C377.23,347.85,243.33,579.75,303.53,804.55Z" transform="translate(-242.05 -262.25)"/><path class="cls-8" d="M676.84,818.62l15.6,9,10.5-18.2a9,9,0,0,0-3.3-12.3h0a9,9,0,0,0-12.3,3.3Z" transform="translate(-242.05 -262.25)"/><path class="cls-8" d="M725.44,902.82v-18h21a9,9,0,0,1,9,9h0a9,9,0,0,1-9,9Z" transform="translate(-242.05 -262.25)"/><path class="cls-8" d="M648.74,803.12l15.6,9,10.5-18.2a9,9,0,0,0-3.3-12.3h0a9,9,0,0,0-12.3,3.3Z" transform="translate(-242.05 -262.25)"/><path class="cls-8" d="M724.84,934.82v-18h21a9,9,0,0,1,9,9h0a9,9,0,0,1-9,9Z" transform="translate(-242.05 -262.25)"/><polygon class="cls-13" points="439.98 625.36 478.08 726.06 498.48 718.96 499.98 604.46 439.98 625.36"/><polygon class="cls-14" points="427.98 604.56 359.78 521.16 376.18 507.06 476.08 563.06 427.98 604.56"/><polygon class="cls-8" points="482.08 722.86 477.18 724.56 440.28 627.06 483.48 611.96 482.08 722.86"/><polygon class="cls-8" points="362.88 516.36 459.58 570.56 424.98 600.46 358.98 519.66 362.88 516.36"/><path class="cls-13" d="M762.44,863.62l-162.2,72.5-13-22.8L731,809.12a60,60,0,0,1,45.9-10.5l6.4,1.2a17.42,17.42,0,0,1,13.3,23.1l-2.2,6.1A59.89,59.89,0,0,1,762.44,863.62Z" transform="translate(-242.05 -262.25)"/><polygon class="cls-13" points="332.68 667.56 338.88 717.76 357.38 713.56 367.28 659.76 332.68 667.56"/><polygon class="cls-8" points="338.88 717.76 337.78 708.66 359.18 703.86 357.38 713.56 338.88 717.76"/><polygon class="cls-14" points="336.88 674.86 296.58 644.36 309.38 630.46 360.98 648.76 336.88 674.86"/><polygon class="cls-8" points="294.88 643.46 302.08 648.96 316.98 632.76 307.68 629.46 294.88 643.46"/><polygon class="cls-10" points="337.78 670.36 333.18 671.16 336.18 667.56 337.48 668.66 337.78 670.36"/><path class="cls-14" d="M776.94,798.72l6.4,1.2a17.77,17.77,0,0,1,11.4,7.4l-201.6,116.3-5.9-10.3L731,809.12A60.46,60.46,0,0,1,776.94,798.72Z" transform="translate(-242.05 -262.25)"/><path class="cls-15" d="M750.14,814.32l9.6,6.5a11.68,11.68,0,0,1,5.2,9.1l.8,11.6,9.4-.7-.8-11.6A21.5,21.5,0,0,0,765,813l-9.6-6.5Z" transform="translate(-242.05 -262.25)"/><path class="cls-8" d="M564.94,939.32h0a3.89,3.89,0,0,0,5.3,1.4l29.7-17.2a3.89,3.89,0,0,0,1.4-5.3h0a3.89,3.89,0,0,0-5.3-1.4L566.34,934A3.92,3.92,0,0,0,564.94,939.32Z" transform="translate(-242.05 -262.25)"/></g></svg>